<?xml version="1.0" encoding="utf-8"?>
<svg version="1.1" width="44px" height="50px" xmlns:xlink="http://www.w3.org/1999/xlink" xmlns="http://www.w3.org/2000/svg">
  <g transform="translate(-101 -57 )">
    <path d="M 123 106.133058151334  C 114.4 93.966497323898  101.5 86.6665608274363  101.5 74.5  C 101.5 68.1857142857143  105.8 57.5  123 57.5  C 140.2 57.5  144.5 68.1857142857143  144.5 74.5  C 144.5 86.6665608274363  131.6 93.966497323898  123 106.133058151334  Z " fill-rule="nonzero" fill="#ffffff" stroke="none" />
    <path d="M 123 107  C 114.2 94.5  101 87  101 74.5  C 101 68  105.4 57  123 57  C 140.6 57  145 68  145 74.5  C 145 87  131.8 94.5  123 107  Z M 123 105.266116302669  C 131.4 93.432994647796  144 86.3331216548725  144 74.5  C 144 68.3714285714286  139.8 58  123 58  C 106.2 58  102 68.3714285714286  102 74.5  C 102 86.3331216548725  114.6 93.432994647796  123 105.266116302669  Z " fill-rule="nonzero" fill="#797979" stroke="none" />
  </g>
</svg>