<?xml version="1.0" encoding="utf-8"?>
<svg version="1.1" width="44px" height="58px" xmlns:xlink="http://www.w3.org/1999/xlink" xmlns="http://www.w3.org/2000/svg">
  <g transform="translate(-13 -101 )">
    <path d="M 13.5 158.5  C 13.5 158.5  13.5 124.5  13.5 124.5  C 13.5 124.5  22.5296161115992 124.5  22.5296161115992 124.5  C 22.5296161115992 124.5  31.8181859198449 102.25412545027  31.8181859198449 102.25412545027  C 31.8181859198449 102.25412545027  41.8738548504952 124.5  41.8738548504952 124.5  C 41.8738548504952 124.5  56.5 124.5  56.5 124.5  C 56.5 124.5  56.5 158.5  56.5 158.5  C 56.5 158.5  13.5 158.5  13.5 158.5  Z " fill-rule="nonzero" fill="#ffffff" stroke="none" />
    <path d="M 13 159  C 13 159  13 124  13 124  C 13 124  22.1965517241379 124  22.1965517241379 124  C 22.1965517241379 124  31.8 101  31.8 101  C 31.8 101  42.1965517241379 124  42.1965517241379 124  C 42.1965517241379 124  57 124  57 124  C 57 124  57 159  57 159  C 57 159  13 159  13 159  Z M 14 158  C 14 158  56 158  56 158  C 56 158  56 125  56 125  C 56 125  41.5511579768522 125  41.5511579768522 125  C 41.5511579768522 125  31.8363718396898 103.50825090054  31.8363718396898 103.50825090054  C 31.8363718396898 103.50825090054  22.8626804990605 125  22.8626804990605 125  C 22.8626804990605 125  14 125  14 125  C 14 125  14 158  14 158  Z " fill-rule="nonzero" fill="#797979" stroke="none" />
  </g>
</svg>